<?xml version="1.0" encoding="utf-8"?>
<!-- Generator: Adobe Illustrator 22.1.0, SVG Export Plug-In . SVG Version: 6.00 Build 0)  -->
<svg version="1.1" xmlns="http://www.w3.org/2000/svg" xmlns:xlink="http://www.w3.org/1999/xlink" x="0px" y="0px"
	 viewBox="0 0 146.6 67.9" style="enable-background:new 0 0 146.6 67.9;" xml:space="preserve">
<g id="KEEP">
	<g>
		<path d="M4,4.1h7.4v15.4C13.6,16.8,20.7,9,25.1,4.1H34L20.1,18.4l14.4,20.2h-9L15,23.2l-3.7,3.5v11.9H4V4.1z"/>
		<path d="M58.1,23.7H41.6v8.8h18.2l-0.9,6.1H34.4V4.1h24.5v6.1H41.6v7.4h16.5V23.7z"/>
		<path d="M85.1,23.7H68.6v8.8h18.2l-0.9,6.1H61.4V4.1h24.5v6.1H68.6v7.4h16.5V23.7z"/>
		<path d="M88.4,4.1h14.3c7.3,0,12.3,4.1,12.3,10.7c0,7.5-5.7,11-12.5,11h-6.7v12.9h-7.5V4.1z M95.8,19.7h5.7c3.5,0,5.9-1.4,5.9-4.9
			c0-3.6-2.6-4.9-5.8-4.9h-5.9V19.7z"/>
	</g>
</g>
<g id="TRACK">
	<g>
		<path d="M12.2,40.5H3.9v-1.8h18.4v1.8h-8.2v22.7h-2V40.5z"/>
		<path d="M27.1,51.8v11.4h-2V38.7H34c4.8,0,7.4,2.6,7.4,6.4c0,3.1-1.9,5.1-4.6,5.7c2.5,0.6,4.2,2.2,4.2,6.4v0.9c0,1.7-0.1,4,0.3,5
			h-2c-0.5-1-0.4-3-0.4-5.1v-0.6c0-4-1.2-5.7-5.8-5.7H27.1z M27.1,50H33c4.3,0,6.2-1.6,6.2-4.8c0-3-1.9-4.7-5.7-4.7h-6.4V50z"/>
		<path d="M49.3,54.8l-3.1,8.4h-2l9-24.5h2.3l9.3,24.5h-2.1l-3.2-8.4H49.3z M59,53c-2.7-7.2-4.1-10.7-4.6-12.4h0
			c-0.6,1.9-2.1,6.2-4.3,12.4H59z"/>
		<path d="M86.5,56.6c-1.2,3.9-4,6.9-9.2,6.9c-7,0-10.7-5.6-10.7-12.5c0-6.6,3.6-12.6,10.8-12.6c5.3,0,8.4,3,9.2,7.1h-2
			c-1.1-3.2-3.2-5.3-7.4-5.3c-6.1,0-8.6,5.5-8.6,10.8c0,5.2,2.5,10.7,8.7,10.7c4,0,6-2.1,7.2-5.1H86.5z"/>
		<path d="M90.8,38.7h2v12.7c2-1.9,8.9-8.4,13.2-12.7h2.6l-11,10.4l11.6,14.1h-2.5L96.3,50.4l-3.5,3.1v9.7h-2V38.7z"/>
	</g>
</g>
<g id="_x2E_">
	<g>
		<path d="M112.6,58.2c1.4,0,2.6,1.2,2.6,2.6c0,1.4-1.2,2.6-2.6,2.6c-1.4,0-2.6-1.2-2.6-2.6C110,59.4,111.2,58.2,112.6,58.2z"/>
	</g>
</g>
<g id="me">
	<g>
		<path d="M131.9,58.1c0.4-0.5,0.6-0.8,0.9-0.8c0.3,0,0.4,0.2,0.4,0.4c0,0.3-0.1,0.5-0.5,0.9c-0.9,1.2-3.4,4.3-5,4.3
			c-0.8,0-1.3-0.6-1.3-1.6c0-1.2,0.7-3.4,0.7-3.6s-0.1-0.4-0.3-0.4c-1,0-3.4,3.2-3.9,4.4c-0.3,0.7-0.5,1.1-0.8,1.1
			c-0.3,0-0.8-0.4-0.8-0.7c0-0.4,1.3-3.8,1.3-4.7c0-0.2-0.2-0.5-0.5-0.5c-0.4,0-1.9,1.2-3,2.7c-0.5,0.7-1,1.8-1.4,2.5
			c-0.3,0.6-0.3,1.1-0.8,1.1c-0.3,0-0.6-0.3-0.6-0.7c0-0.4,1.4-4,2.3-6.9c0.2-0.7,0.5-1,0.8-1c0.4,0,0.7,0.1,0.7,0.6
			c0,0.5-0.9,2.5-1,2.9c0.9-1.3,2.5-2.5,3.3-2.5c0.5,0,1.4,0.3,1.4,1.1c0,0.7-0.2,1.5-0.2,1.8c1-1.4,2.6-2.5,3.6-2.5
			c0.5,0,1.1,0.4,1.1,1c0,0.6-0.8,2.8-0.8,3.9c0,0.4,0.1,0.7,0.4,0.7C129.1,61.7,130.8,59.5,131.9,58.1z"/>
		<path d="M138.7,58.1c0.4-0.5,0.6-0.8,0.9-0.8c0.3,0,0.4,0.2,0.4,0.4c0,0.3-0.1,0.5-0.5,0.9c-1.4,1.7-3.9,4.4-7.2,4.4
			c-0.9,0-1.8-1-1.8-1.9c0-0.3-0.1-0.4-0.1-0.7c0-0.3,0.2-0.6,0.5-0.7c1.2-2.8,3.2-4,4.8-4c0.6,0,1.2,0.5,1.2,1
			c0,1.5-2.6,3.3-4.5,3.7c-0.5,0.1-0.6,0.3-0.6,0.6c0,0.3,0.2,0.9,0.9,0.9C135.5,61.9,137.6,59.5,138.7,58.1z M132.4,59.5
			c1,0,3.4-1.7,3.4-2.3c0-0.2-0.1-0.3-0.4-0.3C134.5,56.9,132.8,58.8,132.4,59.5z"/>
	</g>
</g>
</svg>
